Coordinates
version=1
nRows=18
nColumns=22
inDegrees=yes

Units are S.I. units (second, meters, Newtons, ...)
If the header above contains a line with 'inDegrees', this indicates whether rotational values are in degrees (yes) or radians (no).

endheader
time	pelvis_tilt	pelvis_list	pelvis_rotation	pelvis_tx	pelvis_ty	pelvis_tz	hip_flexion_r	hip_adduction_r	hip_rotation_r	knee_angle_r	ankle_angle_r	subtalar_angle_r	hip_flexion_l	hip_adduction_l	hip_rotation_l	knee_angle_l	ankle_angle_l	subtalar_angle_l	lumbar_extension	lumbar_bending	lumbar_rotation
      1.93000000	     -3.39719516	     -3.65077537	    123.77088078	     -0.88113893	      1.00344203	      0.39653162	     16.80750505	     -6.17096962	     -5.06461081	    -69.25533951	     -5.87161250	      3.98315975	     10.24478326	      0.70847656	      2.28769860	    -17.50925477	     10.56171477	     10.20605814	     -2.94031348	     -8.82361353	      2.20250922
      1.94000000	     -3.34331411	     -3.52038935	    123.25186194	     -0.88591125	      1.00449992	      0.38988180	     18.02907089	     -6.05810704	     -5.61983684	    -69.65878009	     -4.77332919	      3.49722459	      9.38322058	      0.55909880	      1.74319693	    -17.07303546	     10.70324576	     10.00431051	     -3.11503987	     -8.67474299	      1.74293717
      1.95000000	     -3.25605396	     -3.39461784	    122.78423931	     -0.89065160	      1.00552181	      0.38323107	     19.18004917	     -5.94482165	     -6.27790483	    -69.78370018	     -3.77586868	      2.96093456	      8.50591742	      0.39929173	      1.24709803	    -16.55756410	     10.79418024	      9.78865303	     -3.25889555	     -8.49073102	      1.28484294
      1.96000000	     -3.16157491	     -3.27766154	    122.36138299	     -0.89531550	      1.00646210	      0.37661590	     20.26398424	     -5.85381486	     -7.00519362	    -69.66332918	     -2.82938623	      2.53854630	      7.63649629	      0.24829157	      0.75411626	    -16.02539803	     10.91942863	      9.62118233	     -3.39790280	     -8.30210144	      0.80765828
      1.97000000	     -3.03483390	     -3.21494987	    121.96445331	     -0.89986761	      1.00725268	      0.37004246	     21.34745644	     -5.77552147	     -7.75955544	    -69.31250537	     -1.89975448	      2.32598438	      6.82735960	      0.10786894	      0.29286624	    -15.46706537	     10.97643124	      9.55530624	     -3.47064899	     -8.11030800	      0.33428384
      1.98000000	     -2.94632049	     -3.09949801	    121.60398757	     -0.90441912	      1.00806664	      0.36347594	     22.26744502	     -5.75468801	     -8.61376036	    -68.71081991	     -1.03757765	      1.93477259	      5.94339465	     -0.01441124	     -0.16180541	    -14.89482504	     11.08036901	      9.36530533	     -3.62311492	     -7.90700129	     -0.14129811
      1.99000000	     -2.83999468	     -3.05402149	    121.25236044	     -0.90883722	      1.00868491	      0.35694194	     23.20731490	     -5.76666695	     -9.46803841	    -67.91293104	     -0.14541259	      1.75775334	      5.14431878	     -0.11012969	     -0.61778024	    -14.32868648	     11.12989778	      9.27231466	     -3.70539864	     -7.72513720	     -0.58461342
      2.00000000	     -2.74436628	     -3.01824027	    120.91130467	     -0.91316418	      1.00921058	      0.35038574	     24.07967617	     -5.80914620	    -10.34083223	    -66.90566736	      0.74136547	      1.64912142	      4.35140313	     -0.18634222	     -1.06823253	    -13.75984332	     11.16411850	      9.19301131	     -3.78712942	     -7.55425766	     -1.00495939
      2.01000000	     -2.66345236	     -2.98615928	    120.57067850	     -0.91739217	      1.00963204	      0.34380796	     24.88978506	     -5.87555589	    -11.21156689	    -65.71511413	      1.61059127	      1.59206332	      3.55407159	     -0.24214719	     -1.50998238	    -13.18358767	     11.18236131	      9.11402546	     -3.87826111	     -7.38891141	     -1.40567662
      2.02000000	     -2.59302300	     -2.96553747	    120.22818047	     -0.92150774	      1.00993544	      0.33718064	     25.64301260	     -5.95817413	    -12.06971179	    -64.34444226	      2.46317722	      1.57209956	      2.76288830	     -0.27846927	     -1.94748663	    -12.60306520	     11.18622546	      9.02965558	     -3.96480819	     -7.23708680	     -1.76549720
      2.03000000	     -2.53158941	     -2.95198948	    119.87807005	     -0.92550434	      1.01011298	      0.33049767	     26.34184925	     -6.04715780	    -12.90345302	    -62.80991139	      3.28224307	      1.56973064	      1.97158224	     -0.29804043	     -2.38336618	    -12.01354648	     11.17647515	      8.92375844	     -4.05022877	     -7.09229734	     -2.08538770
      2.04000000	     -2.47697597	     -2.93834963	    119.51613332	     -0.92936475	      1.01016383	      0.32374660	     26.98254691	     -6.12970133	    -13.70502691	    -61.12079721	      4.06403499	      1.56880793	      1.17368860	     -0.30665179	     -2.82310517	    -11.41636806	     11.15666824	      8.78053172	     -4.13829210	     -6.95131090	     -2.36606703
      2.05000000	     -2.42632947	     -2.92323260	    119.13793356	     -0.93310337	      1.01007797	      0.31691065	     27.56446494	     -6.19855012	    -14.47083227	    -59.28605708	      4.80666350	      1.55581284	      0.36941984	     -0.30555093	     -3.28170224	    -10.81743786	     11.14609606	      8.60102671	     -4.22510096	     -6.80672769	     -2.60483676
      2.06000000	     -2.37823107	     -2.90428188	    118.74446929	     -0.93671415	      1.00985756	      0.30998823	     28.08580923	     -6.24724789	    -15.19790125	    -57.31135490	      5.48666338	      1.52389184	     -0.44206438	     -0.29747549	     -3.76548010	    -10.21901483	     11.13821807	      8.38786367	     -4.31373892	     -6.65812040	     -2.79882253
      2.07000000	     -2.33148438	     -2.88332298	    118.33309511	     -0.94020397	      1.00948366	      0.30297131	     28.54906338	     -6.27647860	    -15.89245041	    -55.20805060	      6.10106708	      1.47307312	     -1.25221362	     -0.28402793	     -4.28977975	     -9.63858669	     11.17644025	      8.17898910	     -4.39787605	     -6.50550903	     -2.93051278
      2.08000000	     -2.29058137	     -2.85534904	    117.90813684	     -0.94356850	      1.00897168	      0.29585847	     28.94669892	     -6.27898360	    -16.53942320	    -52.98051414	      6.61582219	      1.40754181	     -2.07261916	     -0.26502238	     -4.84485823	     -9.06685237	     11.24416978	      7.98790606	     -4.48674972	     -6.34759554	     -3.04647101
      2.09000000	     -2.25808643	     -2.82458292	    117.47994713	     -0.94682941	      1.00830890	      0.28866242	     29.28113634	     -6.27313037	    -17.17061593	    -50.64302323	      7.02643651	      1.34112061	     -2.89287472	     -0.23806934	     -5.42132628	     -8.51843602	     11.35450612	      7.84527885	     -4.57879345	     -6.19178564	     -3.12261101
      2.10000000	     -2.23421008	     -2.79614256	    117.04635694	     -0.94998880	      1.00748009	      0.28137080	     29.55938141	     -6.25690314	    -17.78284450	    -48.20752157	      7.33513240	      1.29748240	     -3.70395877	     -0.20276007	     -6.00396326	     -8.00747710	     11.52354417	      7.76952215	     -4.66378676	     -6.03929004	     -3.17643423
